<svg width="142" height="185" viewBox="0 0 142 185" fill="none" xmlns="http://www.w3.org/2000/svg">
<path d="M52.2083 0C23.3446 0 0 26.2138 0 58.625C0 102.594 52.2083 167.5 52.2083 167.5C52.2083 167.5 104.417 102.594 104.417 58.625C104.417 26.2138 81.0721 0 52.2083 0ZM14.9167 58.625C14.9167 35.51 31.6233 16.75 52.2083 16.75C72.7933 16.75 89.5 35.51 89.5 58.625C89.5 82.745 68.02 118.841 52.2083 141.37C36.695 119.009 14.9167 82.4938 14.9167 58.625Z" fill="white"/>
<g clip-path="url(#clip0_255_340)">
<path d="M116.708 132.25V172.25H84.7083V132.25H116.708ZM110.708 108.25H90.7083L86.7083 112.25H72.7083V120.25H128.708V112.25H114.708L110.708 108.25ZM124.708 124.25H76.7083V172.25C76.7083 176.65 80.3083 180.25 84.7083 180.25H116.708C121.108 180.25 124.708 176.65 124.708 172.25V124.25Z" fill="white"/>
</g>
<defs>
<clipPath id="clip0_255_340">
<rect width="96" height="96" fill="white" transform="translate(52.7083 96.25)"/>
</clipPath>
</defs>
</svg>
